<svg version="1" id="Capa_1" xmlns="http://www.w3.org/2000/svg" x="0" y="0" viewBox="0 0 456.3 162.7" xml:space="preserve"><style type="text/css">.st0{fill:#feee00}.st1{fill:#bf0811}.st2{fill:#009386}.st3{fill:#8b524c}</style><path class="st0" d="M80 7.1c41.4.2 74.9 34 74.6 75.5s-34 74.9-75.5 74.7C37.7 157 4.2 123.2 4.4 81.7 4.7 40.3 38.6 6.9 80 7.1"/><path class="st1" d="M430.8 118.5c-2.2 0-3.9 1.8-3.9 4 0 2.1 1.7 3.9 3.9 3.9s4-1.8 4-3.9c0-2.3-1.8-4-4-4m-16.2 0c-2.1 0-3.9 1.8-3.9 4 0 2.1 1.8 3.9 3.9 3.9 2.2 0 4-1.8 4-3.9 0-2.3-1.8-4-4-4m-15.2 0c-2.2 0-3.9 1.8-3.9 4 0 2.1 1.7 3.9 3.9 3.9s4-1.8 4-3.9c0-2.3-1.8-4-4-4m-13.7 0c-2.1 0-3.9 1.8-3.9 4 0 2.1 1.8 3.9 3.9 3.9 2.2 0 4-1.8 4-3.9-.1-2.3-1.8-4-4-4m-15.2 0c-2.2 0-3.9 1.8-3.9 4 0 2.1 1.7 3.9 3.9 3.9s4-1.8 4-3.9c-.1-2.3-1.8-4-4-4m-15.7 0c-2.2 0-3.9 1.8-3.9 4 0 2.1 1.7 3.9 3.9 3.9s4-1.8 4-3.9c-.1-2.3-1.8-4-4-4m-14.3 0c-2.1 0-3.9 1.8-3.9 4 0 2.1 1.8 3.9 3.9 3.9 2.2 0 4-1.8 4-3.9 0-2.3-1.8-4-4-4m-16.1 0c-2.2 0-4 1.8-4 4 0 2.1 1.8 3.9 4 3.9 2.1 0 3.9-1.8 3.9-3.9 0-2.3-1.8-4-3.9-4m-15.7 0c-2.2 0-4 1.8-4 4 0 2.1 1.8 3.9 4 3.9 2.1 0 3.9-1.8 3.9-3.9 0-2.3-1.8-4-3.9-4m-16.2 0c-2.2 0-4 1.8-4 4 0 2.1 1.8 3.9 4 3.9 2.1 0 3.9-1.8 3.9-3.9 0-2.3-1.8-4-3.9-4m-15.7 0c-2.2 0-4 1.8-4 4 0 2.1 1.8 3.9 4 3.9 2.1 0 3.9-1.8 3.9-3.9 0-2.3-1.8-4-3.9-4m-15.2 0c-2.2 0-4 1.8-4 4 0 2.1 1.8 3.9 4 3.9 2.1 0 3.9-1.8 3.9-3.9 0-2.3-1.8-4-3.9-4m-14.8 0c-2.2 0-3.9 1.8-3.9 4 0 2.1 1.7 3.9 3.9 3.9s4-1.8 4-3.9c0-2.3-1.8-4-4-4m-15.7 0c-2.2 0-3.9 1.8-3.9 4 0 2.1 1.7 3.9 3.9 3.9s4-1.8 4-3.9c0-2.3-1.8-4-4-4m-15.1 0c-2.2 0-4 1.8-4 4 0 2.1 1.8 3.9 4 3.9s3.9-1.8 3.9-3.9c0-2.3-1.7-4-3.9-4m-15.2 0c-2.2 0-4 1.8-4 4 0 2.1 1.8 3.9 4 3.9 2.1 0 3.9-1.8 3.9-3.9 0-2.3-1.8-4-3.9-4m-14.8 0c-2.1 0-3.9 1.8-3.9 4 0 2.1 1.8 3.9 3.9 3.9 2.2 0 4-1.8 4-3.9 0-2.3-1.8-4-4-4m-16.2 0c-2.1 0-3.9 1.8-3.9 4 0 2.1 1.8 3.9 3.9 3.9 2.2 0 4-1.8 4-3.9 0-2.3-1.8-4-4-4m-14.7 0c-2.2 0-3.9 1.8-3.9 4 0 2.1 1.7 3.9 3.9 3.9s4-1.8 4-3.9c0-2.3-1.8-4-4-4m-15.2 0c-2.2 0-4 1.8-4 4 0 2.1 1.8 3.9 4 3.9s3.9-1.8 3.9-3.9c0-2.3-1.7-4-3.9-4m-15.7 0c-2.2 0-4 1.8-4 4 0 2.1 1.8 3.9 4 3.9 2.1 0 3.9-1.8 3.9-3.9 0-2.3-1.8-4-3.9-4m317.4-8.4v23.1l11.3-12.3-11.3-10.8zM86.2 54.6c-8.7 2.9-14 1.6-18.2-1.4-15.2-10.7-38.7 2.2-35.5 30.9 3.5 30.7 18.9 48.5 38 47.9 5.7-.2 8.7-2 19.3-1.3 7.5.6 13.4-4.4 18.9-12.2 18.1-25 21.5-78.6-22.5-63.9"/><path class="st2" d="M69.4 35.6c2 5.2 1.4 7.6-1.6 7-5.6-5.8-12.1-9.1-20.5-7 4.8-15 12.8-11.6 22.1 0"/><path class="st3" d="M76.1 45.9c1.9-17.7 5.3-24.3 10.8-14.6-.9 5.4-6.5 11.5-6.1 15.7.8 9.8-4.4 7.4-4.7-1.1"/><path d="M423.8 90h.6v-.7h-.6v.7zm5.5 0h.6v-.7h-.6v.7zm-2.4-2.7h-1.1v-1.6h1.3c.3 0 .5.1.6.2s.2.3.2.6c0 .2 0 .3-.1.4l-.3.3c-.2.1-.4.1-.6.1m.7.8l-.3-.3c.4-.1.6-.2.8-.4s.3-.5.3-.9c0-.3-.1-.5-.2-.7s-.3-.4-.4-.4c-.2-.1-.4-.1-.8-.1h-1.8V90h.5v-2.1h.6c.2 0 .3 0 .4.1.1 0 .2.1.3.3s.3.4.5.8l.5 1h.7l-.7-1.3c-.1-.3-.2-.5-.4-.7m-6.1.4c-.1.3-.2.6-.2.8l-.2-.7-.9-3.4h-.8V90h.5v-4.1L421 90h.5l1.2-4v4h.5v-4.8h-.7l-1 3.3zm3.1 5.7c-3.6 0-6.6-3-6.6-6.6s3-6.6 6.6-6.6 6.6 2.9 6.6 6.6c0 3.7-3 6.6-6.6 6.6m0-13.4c-3.8 0-6.9 3.1-6.9 6.9s3.1 6.9 6.9 6.9 6.9-3.1 6.9-6.9c0-3.9-3.1-6.9-6.9-6.9m-116.3 24.4l2-8.9 2.1 8.9h-4.1zm-1-15.3l-7.1 24.7h5.9l.9-4.1h6.6l.9 4.1h6.1l-7-24.7h-6.3zm-19.4 15l-3-15h-7.7v24.7h4.8V95.8l3.6 18.7h4.3l3.6-18.7v18.7h4.8V89.9h-7.7l-2.7 15zm40.5-.8h9v-5h-9v-3.9h9.7v-5.3h-15.5v24.7h15.9V109h-10v-4.9h-.1zM84.2 60.2c-6.7-2.6-11.9-1.6-15.7 3 10.6-2.1 15.2-.8 17.1 2.2.8-3.4 3.2-6.7 7.6-10-3.1.5-6 1.4-9 4.8M359.1 96h6v18.6h5.7V96h5.9v-6.1h-17.6V96zm31.1 2.8c-.3.4-.6.7-.9.8-.6.2-1.1.3-1.4.3h-2.6v-5h2.6c1 0 1.7.3 2 .7.4.4.6 1 .6 1.8.1.5 0 1-.3 1.4m4.1 7.1c-.3-.6-.7-1.1-.9-1.3-.3-.3-.8-.6-1.4-.9.8-.3 1.5-.6 2-.9.8-.7 1.4-1.4 1.8-2.4.5-1 .7-2.2.7-3.5 0-1.5-.3-2.9-.8-4-.6-1.1-1.4-1.9-2.3-2.3-.9-.3-2.4-.6-4.1-.6h-9.7v24.7h5.9v-10h.5c.5 0 1 .2 1.4.5.3.3.5.6.8 1.2.1.2.3.4.3.8l3.1 7.5h6.5l-2.8-7.2c-.3-.4-.6-.9-1-1.6m-39.9-5.7c-1.1-.8-2.9-1.5-5.4-2.2-1-.3-1.7-.6-1.9-.9-.3-.3-.4-.7-.4-1 0-.6.2-1 .5-1.4.3-.3.8-.5 1.5-.5.8 0 1.4.3 1.9.8.4.5.8 1.3.8 2.4l5.5-.4c-.3-2.5-.9-4.4-2.2-5.6-1.3-1.2-3.1-1.8-5.5-1.8-2 0-3.5.3-4.6 1-1.1.6-1.9 1.5-2.5 2.6-.6 1.2-.8 2.4-.8 3.6 0 1.9.5 3.5 1.6 4.7 1.1 1.3 3 2.3 5.5 3 1.5.5 2.5.9 3 1.4.4.5.7 1.1.7 1.8s-.3 1.3-.7 1.8c-.5.5-1.1.8-1.9.8-1.1 0-1.9-.5-2.5-1.5-.4-.6-.7-1.5-.8-2.7l-5.5.4c.2 2.5.8 4.6 2 6.2 1.3 1.6 3.5 2.4 6.7 2.4 1.9 0 3.3-.3 4.6-1 1.2-.7 2.1-1.7 2.8-3 .7-1.4 1-2.8 1-4.4 0-1.4-.3-2.5-.8-3.6-.7-1.3-1.5-2.2-2.6-2.9M121.7 51.7c-10.5-9.1-25.2-11.1-32.6-.3 19.9-11.9 39.9 9.2 38.4 26-2 23.1-18.6 54.5-38.2 50.6-7.2-1.4-15.4-2.3-18.5.6-11.1 10-39.3-11.4-40-45.7-.6-27.7 15.5-38.3 37.2-32.4-11.1-14.1-44.9-.3-40.4 33.3 3.4 25 20 59.1 46 49.2 3.1-1.2 7.9-1.9 13-1 23.5 4.5 34.8-18.2 41.1-38.8 6.4-20.2 4.7-32.1-6-41.5M85.6 36.1c7.5-10.2.5-11-1.4-11.4-5.1-1-8.6 4.6-8.6 23.6 2.8-21.2 11-25.6 10-12.2m173 71.6c-.7 1-1.6 1.6-2.9 1.6-1.2 0-2.2-.6-2.9-1.7s-1-2.9-1-5.3c0-2.5.3-4.3 1-5.4.8-1.1 1.7-1.6 2.9-1.6s2.2.5 2.9 1.6c.7 1 1.1 2.7 1.1 5.1 0 2.7-.3 4.6-1.1 5.7m-2.8-18.2c-3 0-5.5 1.2-7.2 3.4-1.7 2.3-2.5 5.4-2.5 9.4 0 2.9.4 5.3 1.3 7.2.8 1.9 2 3.4 3.4 4.2 1.3.8 3 1.4 5.1 1.4h.2c2.1 0 3.9-.5 5.2-1.5 1.4-1 2.4-2.4 3.2-4.3.8-1.9 1.1-4.2 1.1-7.1 0-4-.8-7.1-2.5-9.3-1.9-2.3-4.2-3.4-7.3-3.4m-86.2 9.3c-.3.4-.6.7-.9.8-.6.2-1.1.3-1.4.3h-2.6v-5h2.6c1 0 1.7.3 2 .7.4.4.6 1 .6 1.8.1.5 0 1-.3 1.4m4.2 7.1c-.4-.6-.8-1.1-.9-1.3-.3-.3-.8-.6-1.5-.9.8-.3 1.5-.6 2-.9.8-.7 1.4-1.4 1.8-2.4.5-1 .7-2.2.7-3.5 0-1.5-.3-2.9-.8-4-.6-1.1-1.4-1.9-2.3-2.3-.9-.3-2.4-.6-4.1-.6h-9.6v24.7h5.8v-10h.5c.5 0 1 .2 1.4.5.2.3.4.6.7 1.2.1.2.3.4.3.8l3.1 7.5h6.5l-2.8-7.2c-.1-.4-.5-.9-.8-1.6m11.2-1.8h9v-5h-9v-3.9h9.8v-5.3h-15.6v24.7h15.9V109h-10l-.1-4.9zm-35.4 4c-.5.8-1.4 1.3-2.4 1.3-1.2 0-2-.5-2.7-1.5-.6-1.1-.9-3-.9-5.7 0-2.2.3-3.8.8-4.9.7-1.4 1.7-2 3-2 .6 0 1.1.2 1.6.4.4.3.8.8 1.2 1.4.2.3.3.9.5 1.7l5.1-1.5c-.7-2.6-1.7-4.6-3-5.7-1.4-1.3-3.2-1.9-5.6-1.9-3 0-5.3 1.1-7 3.3-1.6 2.2-2.4 5.3-2.4 9.5 0 3 .4 5.5 1.4 7.5.9 1.9 2 3.3 3.3 4.1 1.4.8 3 1.2 5.1 1.2 1.6 0 3-.3 4.1-.9 1.1-.7 1.9-1.6 2.7-2.9s1.3-2.8 1.6-4.6l-5.1-2c-.2 1.1-.7 2.3-1.3 3.2m41.7-24.3h-4.5l-2.2 4.9h2.5l4.2-4.9zM227.4 96h5.9v18.6h5.8V96h5.9v-6.1h-17.6V96zM70.2 43.2c-7.3-3.3-9.5-12.5-21.9-9.8 7-10.8 10.4-6.6 22.5 4.4C60.9 17 44 23.7 45.9 39.9c11.3-11 15.4 6.3 24.3 3.3m341.1 64.5c-.7 1-1.7 1.6-2.9 1.6-1.3 0-2.2-.6-2.9-1.7-.8-1.1-1.1-2.9-1.1-5.3 0-2.5.3-4.3 1.1-5.4.7-1.1 1.6-1.6 2.8-1.6h.1c1.2 0 2.1.5 2.8 1.6.8 1 1.1 2.7 1.1 5.1 0 2.7-.4 4.6-1 5.7m-2.9-18.2c-3.1 0-5.5 1.2-7.2 3.4-1.8 2.3-2.6 5.4-2.6 9.4 0 2.9.4 5.3 1.4 7.2.8 1.9 1.9 3.4 3.4 4.2 1.3.8 3 1.4 5.1 1.4h.2c2.1 0 3.8-.5 5.2-1.5 1.4-1 2.4-2.4 3.2-4.3.7-1.9 1.1-4.2 1.1-7.1 0-4-.8-7.1-2.5-9.3-1.8-2.3-4.3-3.4-7.3-3.4m-199.2 17.1c-.3.8-.7 1.4-1.2 1.8-.3.3-.7.4-1.2.5-.4 0-.8.1-1.4.1H204V95.5h1.4c.5 0 .9.1 1.4.2.8.3 1.4.7 1.9 1.3.7 1 .9 2.8.9 5.4.1 1.9 0 3.3-.4 4.2m4.3-13.1c-.7-1.2-1.5-2-2.5-2.6-1.1-.6-2.4-.9-4.1-.9h-8.6v24.7h8.6c1 0 2.2-.3 3.5-.7.9-.3 1.8-1 2.6-1.9.8-1 1.4-2.2 1.9-3.6s.8-3.5.8-6.2c0-1.7-.2-3.3-.5-4.7-.5-1.7-.9-3-1.7-4.1m5.3 21.1h5.7V89.9h-5.7v24.7z"/></svg>